Coordinates
version=1
nRows=5
nColumns=40
inDegrees=yes

Units are S.I. units (second, meters, Newtons, ...)
Angles are in degrees.

endheader
time	pelvis_tilt	pelvis_list	pelvis_rotation	pelvis_tx	pelvis_ty	pelvis_tz	hip_flexion_r	hip_adduction_r	hip_rotation_r	knee_angle_r	knee_angle_r_beta	ankle_angle_r	subtalar_angle_r	mtp_angle_r	hip_flexion_l	hip_adduction_l	hip_rotation_l	knee_angle_l	knee_angle_l_beta	ankle_angle_l	subtalar_angle_l	mtp_angle_l	lumbar_extension	lumbar_bending	lumbar_rotation	arm_flex_r	arm_add_r	arm_rot_r	elbow_flex_r	pro_sup_r	wrist_flex_r	wrist_dev_r	arm_flex_l	arm_add_l	arm_rot_l	elbow_flex_l	pro_sup_l	wrist_flex_l	wrist_dev_l
     24.62000000	     -4.59220433	     -5.00501866	     -1.14393695	      0.81346958	      0.93080191	      0.37938026	     27.60408386	     -7.49506668	     -8.68059611	     60.18541070	     60.18541070	      4.13791743	    -14.98763479	      1.04260738	     15.85746725	     -5.85314693	     -7.22822495	     23.55366663	     23.55366663	     14.36354572	     -9.66875654	      0.74485022	    -11.27362346	      2.45797462	      2.64875020	      6.74286596	    -15.81666621	     -7.73865452	     31.63402373	     46.26707763	      0.00000000	      0.00000000	      4.74745665	    -23.14456578	    -20.87894546	     52.05827778	     46.55463065	      0.00000000	      0.00000000
     24.63164286	     -4.67639180	     -5.03570775	     -1.34679549	      0.81369979	      0.93132977	      0.37971713	     28.19772600	     -7.58388400	     -8.80672896	     58.48238798	     58.48238798	      4.05812072	    -15.03105262	      1.23389062	     15.22272288	     -5.89079738	     -7.45582172	     22.95760691	     22.95760691	     14.51214412	     -9.51861752	      0.77572358	    -11.22039781	      2.53161453	      2.51012741	      6.12231360	    -16.13773673	     -7.83175561	     31.24852872	     46.28362685	      0.00000000	      0.00000000	      5.11468376	    -23.79565615	    -21.11695120	     52.25961972	     46.58894954	      0.00000000	      0.00000000
     24.64328571	     -4.64017180	     -5.05160826	     -1.57258101	      0.81402240	      0.93205190	      0.38017642	     28.55236253	     -7.60968270	     -8.87643472	     56.59053297	     56.59053297	      3.85217582	    -15.16030782	      1.38581082	     14.38449488	     -5.92622741	     -7.80837997	     22.24187849	     22.24187849	     14.63884897	     -9.19400517	      0.69366162	    -11.31500100	      2.55100174	      2.57436947	      5.45087558	    -16.51052090	     -8.06256739	     30.77371006	     46.31206161	      0.00000000	      0.00000000	      5.63131729	    -24.35846441	    -21.40683839	     52.64305664	     46.63552306	      0.00000000	      0.00000000
     24.65492857	     -4.79721851	     -4.96428526	     -1.76259223	      0.81409785	      0.93211875	      0.38052030	     29.12074492	     -7.77858834	     -8.97052952	     54.69244070	     54.69244070	      3.70599905	    -15.04908672	      1.66733302	     14.06166009	     -5.85902169	     -8.03380706	     22.04645544	     22.04645544	     14.82373771	     -9.17669865	      0.61548361	    -11.16447030	      2.45915721	      2.32013853	      4.95148660	    -16.82414142	     -8.16353029	     30.56280936	     46.32378713	      0.00000000	      0.00000000	      5.93447435	    -25.05577866	    -21.60039521	     52.82310164	     46.66086854	      0.00000000	      0.00000000
     24.66657143	     -4.70863140	     -5.12602837	     -1.93789970	      0.81459227	      0.93292530	      0.38120643	     29.10744852	     -7.57010115	     -9.20094907	     52.26174111	     52.26174111	      2.94403860	    -15.35566467	      0.68071218	     12.96674388	     -6.04376136	     -8.43398981	     20.89860658	     20.89860658	     14.43190745	     -8.73945081	     -0.65175802	    -11.34266943	      2.64366175	      2.69564363	      4.15128428	    -16.76877407	    -11.61011381	     29.91358772	     46.54808723	      0.00000000	      0.00000000	      6.62122171	    -25.39551530	    -22.08422703	     53.42616342	     46.82397369	      0.00000000	      0.00000000
